<?xml version="1.0" encoding="UTF-8"?>
<svg version="1.1" xmlns="http://www.w3.org/2000/svg" width="512" height="512">
<path d="M0 0 C1.55863816 -0.00407463 3.11727342 -0.00942148 4.67590332 -0.01593018 C8.87428493 -0.02950368 13.07244318 -0.02434674 17.27082825 -0.01479292 C21.68544065 -0.00714424 26.1000352 -0.01425628 30.51464844 -0.01895142 C37.92516477 -0.02439391 45.33559111 -0.01725707 52.74609375 -0.00292969 C61.28718656 0.01339392 69.82806446 0.00810434 78.36915207 -0.0084089 C85.73089804 -0.02206688 93.0925797 -0.02392244 100.45433426 -0.0160929 C104.83869189 -0.01143999 109.22294883 -0.01072535 113.6072998 -0.02070236 C117.73117525 -0.02943284 121.85477631 -0.0232404 125.97862244 -0.00601959 C127.48294115 -0.00208696 128.98728336 -0.00313277 130.49159241 -0.00980759 C148.07735293 -0.08058364 162.89702515 3.68227795 175.8828125 16.08349609 C188.20295157 28.65941659 188.20295157 28.65941659 188.515625 35.45068359 C188.140625 39.38818359 188.140625 39.38818359 186.515625 41.38818359 C186.061875 42.04818359 185.608125 42.70818359 185.140625 43.38818359 C185.57144601 45.27716803 186.01931742 47.1655044 186.58984375 49.01708984 C187.61037024 53.41042018 187.28897853 57.90461012 187.140625 62.38818359 C187.90375 62.47068359 188.666875 62.55318359 189.453125 62.63818359 C192.140625 63.38818359 192.140625 63.38818359 193.78149414 64.85791016 C195.8433964 68.69652252 195.58871278 72.32844839 195.57421875 76.62255859 C195.5794606 77.53338196 195.58470245 78.44420532 195.59010315 79.38262939 C195.59652692 81.31594833 195.59518176 83.24930632 195.58666992 85.18261719 C195.57827436 88.08652351 195.60672764 90.98838373 195.63867188 93.89208984 C195.71651582 114.34048891 191.76770986 132.14548068 177.140625 147.38818359 C166.37553769 156.94867898 153.69892551 163.38818359 139.140625 163.38818359 C139.140625 174.27818359 139.140625 185.16818359 139.140625 196.38818359 C142.26265381 196.37247314 145.38468262 196.3567627 148.60131836 196.34057617 C158.9748039 196.29062475 169.34829507 196.25763314 179.72186947 196.23274708 C186.00466773 196.21716348 192.28734164 196.19606016 198.57006836 196.16186523 C204.64553087 196.12900941 210.72087457 196.1112758 216.79641914 196.10355186 C219.10178049 196.09805506 221.40713614 196.08732279 223.71244621 196.07099342 C251.28698726 195.88363363 275.89774377 199.72153012 296.45703125 219.70849609 C297.34261719 220.59279297 298.22820312 221.47708984 299.140625 222.38818359 C299.80964844 223.04560547 300.47867187 223.70302734 301.16796875 224.38037109 C313.21597637 237.11137234 320.22977735 255.34719403 320.28779602 272.7283783 C320.29147271 273.44571013 320.2951494 274.16304196 320.2989375 274.90211111 C320.30990892 277.29453005 320.31380705 279.68690545 320.31762695 282.0793457 C320.32389673 283.79971451 320.33054399 285.52008199 320.33753967 287.240448 C320.35852787 292.88213162 320.36893976 298.52381534 320.37890625 304.16552734 C320.38295629 306.11354651 320.38707329 308.06156554 320.39125633 310.00958443 C320.41029948 319.16712811 320.42453022 328.32466379 320.4328683 337.48222345 C320.4426263 348.02303271 320.46891194 358.56363118 320.50936919 369.10436624 C320.53962614 377.27026092 320.55434637 385.43609552 320.55764931 393.60204512 C320.55998959 398.47010739 320.56881544 403.33794427 320.59411049 408.20594597 C320.61756337 412.79349717 320.62155603 417.38067732 320.61134911 421.96827316 C320.61085773 423.64066243 320.61705881 425.31307104 320.63090515 426.98540306 C320.74020174 440.98326197 318.75055782 453.80941512 312.140625 466.38818359 C311.68300781 467.29697266 311.22539062 468.20576172 310.75390625 469.14208984 C300.6837297 487.84384629 283.81916166 501.22496044 263.52404857 507.50777769 C254.19793782 509.97195153 245.56276385 510.96415679 235.88018799 510.89611816 C234.41729387 510.90074186 232.95440443 510.90710451 231.49152446 510.91502714 C227.52191253 510.93154008 223.55269116 510.92355792 219.58307886 510.91108227 C215.28328622 510.90196013 210.9835566 510.91603603 206.68377686 510.92700195 C198.28375761 510.94471053 189.88388198 510.94098316 181.4838573 510.92935139 C174.65931854 510.92029423 167.83481985 510.91910288 161.01027679 510.92344666 C160.03667237 510.92405959 159.06306794 510.92467252 158.05996035 510.92530403 C156.08186381 510.92658298 154.10376728 510.92787983 152.12567076 510.92919439 C133.61818432 510.94057582 115.1107774 510.92752105 96.603304 510.90599293 C80.72019689 510.88809027 64.83720661 510.89125679 48.95410156 510.90966797 C30.49133277 510.93105949 12.02863329 510.939513 -6.43414617 510.92721891 C-8.40103609 510.92594474 -10.36792603 510.92468725 -12.33481598 510.92344666 C-13.30250014 510.92282955 -14.2701843 510.92221245 -15.26719223 510.92157665 C-22.09032313 510.91812111 -28.91341004 510.92395577 -35.73653412 510.93336487 C-44.04086136 510.94456561 -52.34503731 510.94158404 -60.64934716 510.92024189 C-64.88689624 510.90971069 -69.12419275 510.90564518 -73.36174011 510.9188385 C-77.23750756 510.93072356 -81.11278733 510.924265 -84.98851028 510.90292829 C-86.39320339 510.89844605 -87.79793738 510.90076475 -89.20260438 510.91043144 C-91.10656227 510.92253339 -93.01063498 510.90777018 -94.91456223 510.89154816 C-95.97366263 510.89089875 -97.03276304 510.89024934 -98.1239574 510.88958025 C-101.56210061 510.25937537 -102.77355192 509.14977874 -104.859375 506.38818359 C-104.859375 505.39818359 -104.859375 504.40818359 -104.859375 503.38818359 C-105.68179688 503.41138672 -106.50421875 503.43458984 -107.3515625 503.45849609 C-114.47108861 503.57359236 -120.95091867 503.13479106 -127.859375 501.38818359 C-128.16875 502.02755859 -128.478125 502.66693359 -128.796875 503.32568359 C-129.859375 505.38818359 -129.859375 505.38818359 -130.859375 506.38818359 C-137.16576403 506.88442404 -141.14978898 505.85364736 -146.671875 502.88818359 C-147.36474609 502.52724609 -148.05761719 502.16630859 -148.77148438 501.79443359 C-168.62334672 491.1969612 -182.67926064 475.00311076 -189.25562096 453.42709255 C-192.04322881 444.01319514 -192.15668047 435.09719743 -192.14990234 425.37231445 C-192.15589444 423.65312409 -192.16270155 421.9339364 -192.17025757 420.2147522 C-192.18785981 415.56351822 -192.19261063 410.91235793 -192.19388914 406.26109385 C-192.19531508 403.3477514 -192.19959315 400.43442741 -192.20488358 397.52108955 C-192.22336789 387.33590643 -192.23155658 377.15077551 -192.22998047 366.96557617 C-192.22878094 357.50722322 -192.24985031 348.04909914 -192.2814678 338.59080404 C-192.30772412 330.44265842 -192.31834379 322.2945871 -192.31706965 314.14639956 C-192.31656257 309.29233622 -192.32210349 304.43847627 -192.34342575 299.58445549 C-192.3629654 295.01161781 -192.36282657 290.43917415 -192.34839249 285.86632156 C-192.34632231 284.20080672 -192.35089648 282.53526617 -192.3631134 280.86979485 C-192.45832345 266.97507353 -190.80895555 253.47130634 -184.109375 241.01318359 C-183.76575928 240.35310303 -183.42214355 239.69302246 -183.06811523 239.01293945 C-176.75990241 227.26854414 -167.15349042 216.53344029 -155.859375 209.38818359 C-155.199375 209.38818359 -154.539375 209.38818359 -153.859375 209.38818359 C-153.87508545 208.70828369 -153.8907959 208.02838379 -153.90698242 207.32788086 C-153.96992557 204.20223545 -154.00855226 201.07672402 -154.046875 197.95068359 C-154.07201172 196.88140625 -154.09714844 195.81212891 -154.12304688 194.71044922 C-154.19938738 186.38933398 -153.47462412 178.55079552 -147.734375 172.07568359 C-147.21617187 171.46080078 -146.69796875 170.84591797 -146.1640625 170.21240234 C-139.01448175 164.55332741 -131.76110431 163.78952014 -122.88671875 163.85693359 C-121.76423233 163.85310669 -120.64174591 163.84927979 -119.48524475 163.84533691 C-117.12451271 163.84262806 -114.76375012 163.84991679 -112.40307617 163.86669922 C-108.80384059 163.8881421 -105.20659645 163.86685033 -101.60742188 163.84130859 C-99.30468313 163.84395166 -97.00194561 163.84907619 -94.69921875 163.85693359 C-93.631306 163.84883667 -92.56339325 163.84073975 -91.46311951 163.83239746 C-83.86695193 163.92709287 -78.56380595 165.20827384 -72.65234375 170.28271484 C-65.07786352 179.33154645 -64.859375 183.56510791 -64.859375 196.38818359 C-47.039375 196.38818359 -29.219375 196.38818359 -10.859375 196.38818359 C-10.859375 185.49818359 -10.859375 174.60818359 -10.859375 163.38818359 C-14.489375 163.05818359 -18.119375 162.72818359 -21.859375 162.38818359 C-30.59516323 160.07267346 -37.79074864 155.91902835 -44.859375 150.38818359 C-46.40625 149.27443359 -46.40625 149.27443359 -47.984375 148.13818359 C-60.17952495 136.47325755 -66.65269865 120.70140251 -67.26342773 103.93383789 C-67.28953288 101.69348982 -67.29879184 99.45289493 -67.29296875 97.21240234 C-67.2982106 96.00356888 -67.30345245 94.79473541 -67.30885315 93.54927063 C-67.31523052 91.01063804 -67.31399254 88.47197573 -67.30541992 85.93334961 C-67.29691885 82.09548114 -67.32572141 78.25910855 -67.35742188 74.42138672 C-67.41931812 52.90070008 -65.60474564 34.93531212 -50.13671875 18.66943359 C-49.38519531 17.91662109 -48.63367188 17.16380859 -47.859375 16.38818359 C-47.22128906 15.73849609 -46.58320313 15.08880859 -45.92578125 14.41943359 C-33.08966746 2.25047749 -16.96690693 -0.07528445 0 0 Z " fill="#010202" transform="translate(191.859375,0.61181640625)"/>
<path d="M0 0 C1.50945503 -0.00186983 3.01890957 -0.00417122 4.52836335 -0.00686532 C8.66396399 -0.0129683 12.79954437 -0.0128515 16.93514848 -0.01167095 C21.40013835 -0.01146656 25.86512178 -0.01698924 30.33010864 -0.02172852 C39.07275514 -0.03002707 47.8153949 -0.03278299 56.55804501 -0.03334089 C63.66493997 -0.03381637 70.77183271 -0.0358727 77.87872696 -0.03904152 C98.03434166 -0.04784543 118.18995105 -0.05246123 138.34556769 -0.05171105 C139.43165761 -0.05167109 140.51774753 -0.05163113 141.63674927 -0.05158997 C143.2678761 -0.05152864 143.2678761 -0.05152864 144.93195499 -0.05146609 C162.55891756 -0.05105955 180.18585878 -0.06063172 197.81281517 -0.07472833 C215.91817693 -0.08909316 234.02352828 -0.09599848 252.12889588 -0.09513456 C262.29127093 -0.09480265 272.45362359 -0.09754685 282.6159935 -0.10831261 C291.26724399 -0.11741893 299.91846192 -0.11959171 308.56971513 -0.11280318 C312.98206296 -0.10953884 317.39434833 -0.10947826 321.80669022 -0.11815643 C325.84948976 -0.12602593 329.89217738 -0.12458541 333.93497421 -0.1158723 C335.39385405 -0.11433833 336.85274227 -0.1161496 338.31161223 -0.12173238 C358.35698399 -0.19333298 374.99485209 4.77810683 389.82766724 18.72746277 C402.82593272 31.85358005 409.52373074 47.49492811 409.58374023 65.95806885 C409.57312852 67.32545694 409.56222418 68.69284278 409.55105591 70.06022644 C409.55020784 71.52981041 409.55068829 72.99939565 409.55238342 74.46897888 C409.55323778 78.42492674 409.53570371 82.38059702 409.51466155 86.33648086 C409.49580051 90.483095 409.49413693 94.62971677 409.49058533 98.77636719 C409.48129238 106.61361523 409.45671619 114.45073646 409.42653686 122.28792888 C409.38660817 132.8889261 409.37051573 143.48995845 409.3530302 154.091012 C409.32489283 170.77200708 409.26510513 187.45273468 409.21047974 204.13371277 C361.36047974 204.13371277 313.51047974 204.13371277 264.21047974 204.13371277 C267.18047974 197.86371277 270.15047974 191.59371277 273.21047974 185.13371277 C278.66540201 170.05829122 281.59374561 157.43947812 281.52297974 141.38371277 C281.52082458 140.71974487 281.51866943 140.05577698 281.51644897 139.37168884 C281.46552401 129.60263188 281.15742823 120.51036706 278.21047974 111.13371277 C278.01712036 110.51496277 277.82376099 109.89621277 277.62454224 109.25871277 C272.81475785 94.29493912 265.72561567 79.8895127 255.21047974 68.13371277 C254.16440552 66.89234558 254.16440552 66.89234558 253.09719849 65.62590027 C235.91912341 45.67126243 208.87675962 30.69688595 182.44241333 28.2787323 C167.9285555 27.33569669 153.27634922 27.08916124 139.21047974 31.13371277 C138.01036255 31.46242371 136.81024536 31.79113464 135.57376099 32.12980652 C120.62247419 36.64487641 107.21009105 44.18027795 95.21047974 54.13371277 C94.33907349 54.85300964 93.46766724 55.57230652 92.56985474 56.31340027 C72.91253716 73.25728444 57.81849319 99.97374107 55.21047974 126.13371277 C54.43158224 144.65037169 55.29393301 161.41855084 60.89797974 179.13371277 C61.20856323 180.12878845 61.20856323 180.12878845 61.52542114 181.14396667 C64.29075616 189.28881816 68.28208522 196.27692373 72.21047974 204.13371277 C24.36047974 204.13371277 -23.48952026 204.13371277 -72.78952026 204.13371277 C-72.99103543 167.41317048 -72.99103543 167.41317048 -73.03366089 151.95011902 C-73.06325567 141.30009331 -73.09792555 130.65026632 -73.16671753 120.00041199 C-73.21680853 112.24195267 -73.2488715 104.48365555 -73.25996274 96.72503901 C-73.2664384 92.62301691 -73.28148078 88.52145853 -73.31817055 84.41958618 C-73.35253826 80.54530465 -73.36249282 76.67167026 -73.35505867 72.79725075 C-73.35641529 71.38811009 -73.36610254 69.9789439 -73.38554764 68.56993675 C-73.62459151 50.32756664 -67.71100921 33.82146969 -55.17208862 20.41764832 C-39.23635042 4.10701457 -22.0654487 -0.02592318 0 0 Z " fill="#A2DDFD" transform="translate(87.78952026367188,212.8662872314453)"/>
<path d="M0 0 C1.12277344 0.37382812 2.24554688 0.74765625 3.40234375 1.1328125 C15.58659359 5.5081317 26.22419586 11.53418636 36 20 C36.75925781 20.61488281 37.51851562 21.22976563 38.30078125 21.86328125 C55.4133869 36.13856369 67.43779954 59.35700144 69.79052734 81.42675781 C72.00776935 108.66420624 66.97369383 134.98791669 49.6875 156.75 C48.1480132 158.52027869 46.5849261 160.27028456 45 162 C44.17886719 162.91394531 43.35773438 163.82789063 42.51171875 164.76953125 C25.13529209 183.17567208 0.62186754 193.88162754 -24.625 195.1875 C-54.40991416 195.68391524 -79.13987007 185.25868409 -100.5625 164.8125 C-121.00170687 143.82632844 -128.41727007 118.25736043 -128.15234375 89.5859375 C-128.03140137 83.55481081 -127.49376476 77.85487108 -126 72 C-125.75507813 70.99710937 -125.51015625 69.99421875 -125.2578125 68.9609375 C-121.52824094 55.39585863 -114.89371887 42.8737676 -106 32 C-105.27425781 31.09894531 -104.54851562 30.19789063 -103.80078125 29.26953125 C-79.09875369 0.32120474 -36.20537724 -12.37859825 0 0 Z " fill="#4D555F" transform="translate(285,259)"/>
<path d="M0 0 C1.24962524 -0.00014603 2.49925049 -0.00029205 3.78674316 -0.0004425 C7.1911437 0.00013221 10.59548258 0.00512588 13.99987221 0.01213145 C17.56595297 0.01840927 21.13203468 0.01897228 24.69812012 0.02015686 C31.4410617 0.02325717 38.18398695 0.03145294 44.92692137 0.04150635 C52.60773236 0.05270798 60.28854417 0.05818812 67.96936131 0.06320179 C83.7601826 0.07363671 99.55098763 0.09121084 115.34179688 0.11352539 C114.72461887 4.54779096 114.00843492 8.8834113 113.00195312 13.24633789 C112.61426758 14.95176758 112.61426758 14.95176758 112.21875 16.69165039 C111.68108909 19.03311851 111.14205434 21.37427163 110.6015625 23.71508789 C110.34181641 24.85977539 110.08207031 26.00446289 109.81445312 27.18383789 C109.55470703 28.32602783 109.29496094 29.46821777 109.02734375 30.64501953 C108.33774994 34.13400073 107.94730179 37.58334762 107.56445312 41.11743164 C106.9634435 45.20590721 106.48044687 47.70867855 103.36523438 50.50805664 C102.17375263 51.3500787 100.95607083 52.15607087 99.71679688 52.92602539 C98.43563796 53.82871917 97.15697419 54.73496486 95.88085938 55.64477539 C95.26629883 56.06758789 94.65173828 56.49040039 94.01855469 56.92602539 C74.07670085 71.04908553 62.24952662 99.23924344 57.70507812 122.35180664 C55.82324295 141.83790633 57.13332682 160.4755537 63.02929688 179.11352539 C63.33988037 180.10860107 63.33988037 180.10860107 63.65673828 181.1237793 C66.4220733 189.26863078 70.41340236 196.25673635 74.34179688 204.11352539 C26.49179688 204.11352539 -21.35820313 204.11352539 -70.65820312 204.11352539 C-70.8597183 167.3929831 -70.8597183 167.3929831 -70.90234375 151.92993164 C-70.93193853 141.27990593 -70.96660841 130.63007894 -71.03540039 119.98022461 C-71.08549139 112.22176529 -71.11755436 104.46346818 -71.1286456 96.70485163 C-71.13512126 92.60282953 -71.15016364 88.50127115 -71.18685341 84.3993988 C-71.22122113 80.52511727 -71.23117568 76.65148288 -71.22374153 72.77706337 C-71.22509816 71.36792271 -71.2347854 69.95875652 -71.2542305 68.54974937 C-71.49327437 50.30737926 -65.57969207 33.80128231 -53.04077148 20.39746094 C-37.85239097 4.85176682 -21.17484418 -0.0651719 0 0 Z " fill="#79CDF9" transform="translate(85.658203125,212.886474609375)"/>
<path d="M0 0 C1.29502945 -0.00852997 2.5900589 -0.01705994 3.92433167 -0.02584839 C5.34228528 -0.02514949 6.7602388 -0.02422649 8.17819214 -0.02310181 C9.68520946 -0.02909233 11.19222373 -0.03589908 12.69923401 -0.04345703 C16.78015725 -0.06107548 20.86099653 -0.06581078 24.94195414 -0.0670886 C27.49712774 -0.06851365 30.05228024 -0.07279002 32.60744858 -0.07808304 C41.53778174 -0.09657284 50.46805532 -0.10475537 59.39840698 -0.10317993 C67.69572316 -0.10198031 75.99277846 -0.12305001 84.29002869 -0.15466726 C91.43427527 -0.18091133 98.57843712 -0.19154376 105.72273147 -0.19026911 C109.98037959 -0.18976166 114.23779596 -0.19532315 118.49539566 -0.21662521 C122.50598387 -0.23614408 126.51612261 -0.2360401 130.52672768 -0.22159195 C131.988707 -0.21951921 133.45071546 -0.22411184 134.91264534 -0.23631287 C150.67108069 -0.35918283 163.10395459 3.12946338 174.54879761 14.14242554 C177.17408041 16.83515632 179.31990563 19.59361439 181.42379761 22.70492554 C183.37381909 25.46204034 183.37381909 25.46204034 186.28707886 26.99008179 C188.42379576 27.34079314 188.42379576 27.34079314 191.36129761 27.26742554 C194.02933227 33.69929481 195.81763316 40.30432118 194.36129761 47.26742554 C191.42379761 49.82992554 191.42379761 49.82992554 188.36129761 51.26742554 C186.64275846 54.70450384 187.20317033 58.66301549 187.18551636 62.44711304 C187.16228928 64.34556127 187.13817084 66.24399877 187.11325073 68.14242554 C187.07836443 71.1284981 187.04892581 74.11418333 187.03536987 77.10043335 C186.93990346 94.69562715 184.96966024 108.02868314 172.73629761 121.45492554 C161.51775726 132.2221453 148.09556487 133.56910724 133.33908081 133.57382202 C131.82206316 133.58145343 130.30504934 133.5898826 128.78804016 133.5990448 C124.6844585 133.62090179 120.58095133 133.62977697 116.47731805 133.63487124 C113.90756565 133.63852571 111.33783243 133.64477142 108.76808739 133.65187263 C99.78588386 133.676338 90.80373782 133.68941241 81.82150269 133.69296265 C73.4769671 133.69659413 65.13280014 133.72646917 56.78837711 133.76836723 C49.60164755 133.80317456 42.41503955 133.8185129 35.22822636 133.81920868 C30.94593973 133.81999804 26.664029 133.82857814 22.38183022 133.85720634 C18.34900026 133.88356654 14.31685309 133.88549357 10.2839756 133.8695507 C8.81392414 133.86775028 7.34383175 133.87429807 5.87386703 133.89036942 C-7.33747807 134.0258658 -18.64026101 131.20408553 -28.63870239 122.26742554 C-29.54362427 121.51719116 -29.54362427 121.51719116 -30.46682739 120.75180054 C-37.9916685 114.01216024 -43.12207763 103.46245633 -43.84687805 93.36816406 C-43.95298511 89.79823941 -43.99460186 86.23344047 -44.00979614 82.66195679 C-44.01882462 81.34636276 -44.02785309 80.03076874 -44.03715515 78.67530823 C-44.0535856 75.89568643 -44.06133384 73.11618417 -44.0642395 70.33651733 C-44.06960541 66.80736999 -44.10723423 63.27937697 -44.15298367 59.75055408 C-44.18301129 57.00582479 -44.18996861 54.26136432 -44.19096565 51.51648521 C-44.19711534 49.59349212 -44.22644984 47.67061686 -44.25648499 45.74784851 C-44.19035138 32.71459759 -39.6302297 22.46063151 -30.60745239 13.17758179 C-22.03463434 5.07264641 -11.96145649 0.03580564 0 0 Z " fill="#6CC88E" transform="translate(184.63870239257813,15.732574462890625)"/>
<path d="M0 0 C20.41034484 -0.25735901 40.8203589 -0.45113033 61.23199177 -0.56993389 C70.71030847 -0.62657179 80.18761504 -0.70373776 89.6652832 -0.82983398 C97.9294691 -0.93973261 106.19292328 -1.01050045 114.45781964 -1.03497344 C118.83147287 -1.04927264 123.20303354 -1.08268862 127.57601357 -1.16303062 C131.69957713 -1.23817046 135.82020425 -1.26063781 139.94438744 -1.24418449 C141.45089611 -1.24719028 142.95751142 -1.26880256 144.46342468 -1.31126022 C151.64596044 -1.50368842 157.4067623 -1.24701383 162.81475943 3.87698382 C164.9806718 6.16344755 166.97991179 8.58489884 169 11 C171.26680793 12.93718076 173.60935105 14.59202406 176.125 16.1875 C176.74262207 16.58912354 177.36024414 16.99074707 177.99658203 17.40454102 C202.06831915 32.61232802 231.85810127 40.23059821 260.125 34.6875 C262.42206176 34.14745406 264.71450533 33.5870745 267 33 C267.92425781 32.79503906 268.84851563 32.59007812 269.80078125 32.37890625 C285.85329609 28.55008419 307.3839101 19.48052457 317.45688629 6.05876923 C320.3784957 2.45542233 322.64643923 0.30341201 327.25218201 -0.72900391 C331.3268033 -0.98506672 335.33340112 -0.99119764 339.41210938 -0.90820312 C340.96991865 -0.90594389 342.52773643 -0.90721837 344.08554077 -0.91174316 C348.29643096 -0.91403071 352.50548358 -0.86713008 356.7159481 -0.8111515 C361.12275144 -0.76100691 365.52960089 -0.7564312 369.93664551 -0.74694824 C378.27370239 -0.72212218 386.6099161 -0.65652684 394.94660234 -0.57615232 C404.44104642 -0.48661057 413.93553161 -0.44271654 423.43029308 -0.40258884 C442.95400606 -0.3190566 462.47693514 -0.17841994 482 0 C481.85103412 1.76144919 481.69889264 3.52263002 481.54541016 5.28369141 C481.4188353 6.75486923 481.4188353 6.75486923 481.28970337 8.25576782 C479.60018937 24.25978841 470.53409741 39.07120449 458.33203125 49.21875 C443.58257987 60.36925203 428.33854047 64.63907091 410.01167297 64.49206543 C408.56614281 64.49508521 407.12061548 64.4998713 405.67509621 64.50624418 C401.74881297 64.5186227 397.8229455 64.50655807 393.89669144 64.49016929 C389.64529176 64.47689564 385.39393756 64.48698424 381.14253235 64.49427795 C373.79102226 64.50392025 366.43963107 64.49954061 359.08812904 64.4858551 C348.45497652 64.46643167 337.8219567 64.47295851 327.1888006 64.48642892 C309.9280252 64.50796846 292.66728127 64.51473258 275.40649414 64.50927734 C273.85969088 64.50879639 273.85969088 64.50879639 272.28163906 64.50830573 C264.95859254 64.50593155 257.63554627 64.50302578 250.3125 64.5 C241.92814138 64.4965381 233.54378276 64.49332121 225.15942383 64.49072266 C224.12615183 64.49039715 223.09287984 64.49007163 222.02829657 64.48973626 C204.81543438 64.48479866 187.60261588 64.49544826 170.38976735 64.51729441 C159.77783176 64.53000284 149.16607597 64.52852454 138.55415007 64.50884354 C131.2941429 64.49626347 124.03422719 64.49767279 116.77422021 64.51021707 C112.58324684 64.51694662 108.39254015 64.51697791 104.20159149 64.4996357 C100.36836219 64.48387439 96.53560009 64.4863275 92.7023808 64.50348574 C91.31312764 64.5064137 89.92384051 64.50251144 88.5346301 64.49122757 C86.65151585 64.47688776 84.76825366 64.48939859 82.8851366 64.50336456 C81.83764518 64.50271515 80.79015375 64.50206574 79.71092016 64.50139666 C76.28503179 65.13149983 75.12731357 66.29301695 73 69 C72.505 70.485 72.505 70.485 72 72 C64.05042008 72.22428282 56.72888819 71.95403042 49 70 C48.6596875 68.3603125 48.6596875 68.3603125 48.3125 66.6875 C46.76705721 62.34554168 45.94847586 62.0438514 42 60 C40.1294053 59.11562142 38.25411975 58.24111719 36.375 57.375 C22.34450986 50.40289912 12.84245837 39.86341565 6 26 C5.60683594 25.21238281 5.21367187 24.42476563 4.80859375 23.61328125 C1.06714361 15.7023922 -0.04181079 8.67078849 0 0 Z " fill="#EBCE74" transform="translate(15,432)"/>
<path d="M0 0 C1.12277344 0.37382812 2.24554688 0.74765625 3.40234375 1.1328125 C15.58659359 5.5081317 26.22419586 11.53418636 36 20 C36.75925781 20.61488281 37.51851562 21.22976563 38.30078125 21.86328125 C55.4133869 36.13856369 67.43779954 59.35700144 69.79052734 81.42675781 C72.00776935 108.66420624 66.97369383 134.98791669 49.6875 156.75 C48.1480132 158.52027869 46.5849261 160.27028456 45 162 C44.17886719 162.91394531 43.35773438 163.82789063 42.51171875 164.76953125 C25.13529209 183.17567208 0.62186754 193.88162754 -24.625 195.1875 C-54.40991416 195.68391524 -79.13987007 185.25868409 -100.5625 164.8125 C-121.00170687 143.82632844 -128.41727007 118.25736043 -128.15234375 89.5859375 C-128.03140137 83.55481081 -127.49376476 77.85487108 -126 72 C-125.75507813 70.99710937 -125.51015625 69.99421875 -125.2578125 68.9609375 C-121.52824094 55.39585863 -114.89371887 42.8737676 -106 32 C-105.27425781 31.09894531 -104.54851562 30.19789063 -103.80078125 29.26953125 C-79.09875369 0.32120474 -36.20537724 -12.37859825 0 0 Z M-85.6875 45.6875 C-99.39281871 61.57488197 -105.33159494 81.16698243 -104 102 C-101.52990629 121.70240104 -92.71688445 140.11738174 -77.4375 153 C-59.80705006 166.57010389 -41.0606783 171.39852971 -19 170 C-14.82839234 169.38752119 -10.98822002 168.35304865 -7 167 C-5.94425781 166.6596875 -4.88851562 166.319375 -3.80078125 165.96875 C14.06122909 159.71176176 28.57215496 147.18336756 37.3515625 130.4765625 C46.24471595 111.72085972 49.27756816 91.99079519 42.73193359 72.02197266 C35.28657901 51.45411853 21.42412928 36.76632198 2 27 C-29.04287207 13.46130225 -62.47640053 21.52577529 -85.6875 45.6875 Z " fill="#F3E0A1" transform="translate(285,259)"/>
<path d="M0 0 C1.55780927 0.00225924 3.11562706 0.00098475 4.6734314 -0.00354004 C8.88432159 -0.00582758 13.0933742 0.04107305 17.30383873 0.09705162 C21.71064207 0.14719621 26.11749152 0.15177192 30.52453613 0.16125488 C38.86159302 0.18608094 47.19780672 0.25167629 55.53449297 0.3320508 C65.02893705 0.42159255 74.52342224 0.46548659 84.01818371 0.50561428 C103.54189668 0.58914653 123.06482577 0.72978318 142.58789062 0.90820312 C142.43892474 2.66965232 142.28678326 4.43083314 142.13330078 6.19189453 C142.00672592 7.66307236 142.00672592 7.66307236 141.87759399 9.16397095 C140.18807999 25.16799153 131.12198804 39.97940762 118.91992188 50.12695312 C113.2073016 54.44566182 107.25764404 58.25343489 100.58789062 60.90820312 C99.98379868 61.15478291 99.37970673 61.40136269 98.75730896 61.65541458 C90.25536427 64.67868532 81.61628804 64.37549617 72.72070312 64.39160156 C70.9226593 64.40550879 69.12462419 64.42058578 67.32659912 64.43673706 C62.46717369 64.47587933 57.60787212 64.49539603 52.7483139 64.50876904 C49.70786401 64.51759271 46.66744724 64.52991243 43.62701416 64.54328156 C34.10054382 64.58423294 24.57415009 64.61327415 15.04759789 64.62488723 C4.07397338 64.63834127 -6.89853229 64.69106897 -17.87181664 64.77788901 C-26.37318889 64.84280482 -34.87424665 64.8730031 -43.37586403 64.87701058 C-48.44581905 64.8801483 -53.51471885 64.89773028 -58.58441162 64.95146942 C-63.35220061 65.0010342 -68.11814538 65.00732463 -72.88610077 64.9810524 C-74.62997137 64.97874807 -76.37394292 64.9916818 -78.11756134 65.02142715 C-92.8933769 65.25861245 -92.8933769 65.25861245 -99.30810547 59.56304932 C-100.71301315 58.04476993 -102.08527615 56.49516611 -103.41210938 54.90820312 C-104.58094112 53.71775316 -105.75628222 52.53358517 -106.94335938 51.36132812 C-107.93757276 50.29792979 -108.92732903 49.23034301 -109.91210938 48.15820312 C-110.42257813 47.62066406 -110.93304688 47.083125 -111.45898438 46.52929688 C-114.29612716 43.46070296 -115.98586495 40.80649476 -117.41210938 36.90820312 C-116.16675415 36.9317688 -116.16675415 36.9317688 -114.89624023 36.95581055 C-93.44933012 37.53666803 -93.44933012 37.53666803 -72.41210938 33.90820312 C-71.49945313 33.70324219 -70.58679688 33.49828125 -69.64648438 33.28710938 C-53.59098393 29.5079638 -32.01745564 20.37441232 -21.95522308 6.96697235 C-15.8234849 -0.59556482 -9.00917469 -0.18332082 0 0 Z " fill="#F5ED85" transform="translate(354.412109375,431.091796875)"/>
<path d="M0 0 C14.43021452 -0.09367372 28.86038149 -0.16382515 43.29083824 -0.20724869 C49.99201792 -0.22782498 56.6929802 -0.25635461 63.39404297 -0.30175781 C69.86499663 -0.34532586 76.33575375 -0.36916058 82.8068428 -0.37950897 C85.27151202 -0.38688059 87.73617088 -0.40127556 90.20075607 -0.42292023 C93.66190303 -0.45209886 97.12224527 -0.45594982 100.58349609 -0.45410156 C102.10049103 -0.47567322 102.10049103 -0.47567322 103.64813232 -0.49768066 C116.07386457 -0.42622102 124.87050279 4.96531887 133.625 13.375 C136.08993244 15.87339306 138.03881973 18.46954775 140 21.375 C141.98233032 24.16679009 141.98233032 24.16679009 144.9296875 25.7265625 C147.0633571 26.07249682 147.0633571 26.07249682 150 26 C152.66803466 32.43186927 154.45633555 39.03689564 153 46 C150.0625 48.5625 150.0625 48.5625 147 50 C145.28146085 53.4370783 145.84187272 57.39558995 145.82421875 61.1796875 C145.80099168 63.07813574 145.77687324 64.97657323 145.75195312 66.875 C145.71706682 69.86107256 145.6876282 72.84675779 145.67407227 75.83300781 C145.57860586 93.42820162 143.60836264 106.7612576 131.375 120.1875 C122.61138092 128.59855969 111.14689196 132.15191479 99.22631836 132.38574219 C98.12952507 132.41027466 98.12952507 132.41027466 97.01057434 132.43530273 C94.62036228 132.48443796 92.23038121 132.51787511 89.83984375 132.546875 C89.01744265 132.55752235 88.19504154 132.56816971 87.34771919 132.57913971 C83.00195185 132.63233078 78.65629448 132.67118076 74.31030273 132.70019531 C70.72561409 132.72694976 67.1431827 132.78281208 63.55932617 132.86425781 C59.21204528 132.96300572 54.8668193 133.01244001 50.51846504 133.02664948 C48.86890682 133.04004231 47.21939182 133.07040656 45.57047844 133.11843109 C32.71833644 133.4716827 32.71833644 133.4716827 28.4702301 129.83335876 C26.65975231 127.28704517 25.29654525 124.83641657 24 122 C23.27064872 120.75643803 22.5334789 119.51739522 21.78515625 118.28515625 C21.21667969 117.22167969 20.64820313 116.15820312 20.0625 115.0625 C19.47597656 113.98097656 18.88945312 112.89945312 18.28515625 111.78515625 C17 109 17 109 17 106 C18.04268036 105.99635437 19.08536072 105.99270874 20.15963745 105.98895264 C30.01652347 105.95190919 39.87309977 105.89403474 49.72974968 105.81609726 C54.79640823 105.7766952 59.86289487 105.74447112 64.9296875 105.72900391 C69.82527203 105.71378936 74.72038371 105.679259 79.61575699 105.63169098 C81.47747803 105.61692653 83.3392666 105.60896184 85.20104599 105.60811615 C101.06481088 105.97946687 101.06481088 105.97946687 114.5 98.5625 C116.99824037 94.2946727 118.24858039 90.80868373 118.2746582 85.84594727 C118.28419022 84.84463272 118.29372223 83.84331818 118.30354309 82.81166077 C118.30263168 81.74072678 118.30172028 80.66979279 118.30078125 79.56640625 C118.30720894 77.90036598 118.30720894 77.90036598 118.31376648 76.20066833 C118.31950241 73.85473308 118.32001548 71.50878004 118.31567383 69.1628418 C118.31251451 65.57895493 118.33598102 61.9958942 118.36132812 58.41210938 C118.36360128 56.13020937 118.36430454 53.84830716 118.36328125 51.56640625 C118.372491 50.49749649 118.38170074 49.42858673 118.39118958 48.32728577 C118.35651487 42.73557596 118.04342951 38.8713209 115 34 C114.67 33.01 114.34 32.02 114 31 C112.30230766 29.89831016 112.30230766 29.89831016 110 29 C109.00931015 28.49329269 108.0186203 27.98658539 106.99790955 27.46452332 C102.28701321 25.45928535 97.71358373 25.55996888 92.65844727 25.56762695 C91.64305374 25.5574353 90.62766022 25.54724365 89.58149719 25.53674316 C86.24307694 25.50667739 82.90494395 25.49735683 79.56640625 25.48828125 C77.24469555 25.47142985 74.92299394 25.45327899 72.6013031 25.43388367 C66.50386396 25.38642789 60.40646172 25.35658972 54.30889893 25.33044434 C48.08150955 25.30061666 41.85424723 25.25409385 35.62695312 25.20898438 C23.41803527 25.12300144 11.20909123 25.05563371 -1 25 C-1.02749916 22.70840363 -1.04661689 20.41670632 -1.0625 18.125 C-1.07410156 16.84882812 -1.08570313 15.57265625 -1.09765625 14.2578125 C-1.06192374 9.47426638 -0.54074133 4.74901349 0 0 Z " fill="#8DE1CE" transform="translate(226,17)"/>
<path d="M0 0 C1.81724579 -0.00845947 1.81724579 -0.00845947 3.67120361 -0.01708984 C5.02087462 -0.0132009 6.37054503 -0.00910454 7.72021484 -0.00482178 C9.13596782 -0.00753064 10.55171938 -0.01109098 11.96746826 -0.01544189 C15.81863594 -0.02458065 19.66969678 -0.02101556 23.52086639 -0.01468372 C27.54516393 -0.00963139 31.56945212 -0.01431303 35.59375 -0.01745605 C42.35271858 -0.02109795 49.11164351 -0.01629077 55.87060547 -0.0067749 C63.69251568 0.00411009 71.51432164 0.00058467 79.33622932 -0.01042771 C86.04368548 -0.01949426 92.75111018 -0.02078898 99.45857048 -0.01555037 C103.46826767 -0.01242718 107.4779158 -0.01203088 111.48760986 -0.01862335 C115.25669502 -0.02438702 119.02564534 -0.02041803 122.79471588 -0.00883484 C124.1806745 -0.00618298 125.5666444 -0.00696227 126.95259857 -0.01136017 C128.83916325 -0.01679612 130.72575262 -0.0087821 132.61230469 0 C133.66976898 0.00075405 134.72723328 0.0015081 135.81674194 0.002285 C138.30615234 0.25396729 138.30615234 0.25396729 140.30615234 2.25396729 C140.56684875 4.18266296 140.56684875 4.18266296 140.58081055 6.56427002 C140.59034256 7.45536972 140.59987457 8.34646942 140.60969543 9.26457214 C140.60832832 10.71145164 140.60832832 10.71145164 140.60693359 12.18756104 C140.61121872 13.17643814 140.61550385 14.16531525 140.61991882 15.18415833 C140.62566871 17.27813958 140.62615756 19.37214082 140.62182617 21.46612549 C140.6186685 24.67504889 140.64210952 27.88304876 140.66748047 31.09185791 C140.66975357 33.12375778 140.67045691 35.15566015 140.66943359 37.18756104 C140.67864334 38.15012314 140.68785309 39.11268524 140.69734192 40.10441589 C140.69111313 40.99866776 140.68488434 41.89291962 140.6784668 42.81427002 C140.67909622 43.60099594 140.67972565 44.38772186 140.68037415 45.19828796 C140.19195484 47.8812783 139.470426 48.60810329 137.30615234 50.25396729 C134.72772217 50.63149071 134.72772217 50.63149071 131.57470703 50.63491821 C129.78280945 50.64760742 129.78280945 50.64760742 127.95471191 50.66055298 C126.64240601 50.65448029 125.3301001 50.64840759 123.97802734 50.64215088 C122.58345122 50.64621551 121.18887831 50.65155678 119.79431152 50.65808105 C116.00507228 50.67177352 112.2160777 50.66644817 108.42683411 50.6569438 C104.46439954 50.64935714 100.50198615 50.65639004 96.53955078 50.66110229 C89.88489006 50.66656276 83.23032917 50.65936065 76.57568359 50.64508057 C68.87812678 50.62875344 61.18080833 50.63404175 53.48325729 50.65055978 C46.8785129 50.66416641 40.27384033 50.66609836 33.66908646 50.65824378 C29.72250714 50.6535627 25.77603992 50.65295425 21.82946777 50.66285324 C18.11939821 50.67150872 14.40963647 50.66552732 10.69960022 50.64817047 C8.68560206 50.64230047 6.67157792 50.65123327 4.65759277 50.66055298 C3.46299438 50.65209351 2.268396 50.64363403 1.03759766 50.63491821 C-0.52314484 50.6332216 -0.52314484 50.6332216 -2.11541748 50.63149071 C-4.69384766 50.25396729 -4.69384766 50.25396729 -6.52867413 48.85863781 C-8.06532307 46.7423734 -8.06824457 45.41716254 -8.06616211 42.81427002 C-8.0723909 41.92001816 -8.07861969 41.0257663 -8.08503723 40.10441589 C-8.07582748 39.14185379 -8.06661774 38.17929169 -8.05712891 37.18756104 C-8.05787666 35.70281029 -8.05787666 35.70281029 -8.05863953 34.18806458 C-8.05629894 32.09583529 -8.04657133 30.00360319 -8.0300293 27.91143799 C-8.00641401 24.70049001 -8.00947133 21.49037077 -8.01611328 18.27935791 C-8.01053742 16.24875398 -8.00342812 14.21815356 -7.99462891 12.18756104 C-7.99554031 11.2229747 -7.99645172 10.25838837 -7.99739075 9.26457214 C-7.98785873 8.37347244 -7.97832672 7.48237274 -7.96850586 6.56427002 C-7.96389847 5.77833969 -7.95929108 4.99240936 -7.95454407 4.18266296 C-7.31933195 -0.51679129 -3.88879636 0.002773 0 0 Z " fill="#F6EE86" transform="translate(189.69384765625,57.74603271484375)"/>
<path d="M0 0 C1.26873962 -0.00845947 2.53747925 -0.01691895 3.84466553 -0.02563477 C5.24321113 -0.01980233 6.64175546 -0.01365785 8.04029846 -0.00723267 C9.51897062 -0.01129955 10.99763973 -0.01664208 12.4763031 -0.02316284 C16.48668847 -0.03682968 20.49684209 -0.03154015 24.50723147 -0.02202559 C28.70714865 -0.01442428 32.90704614 -0.02147604 37.10696411 -0.02618408 C44.16078753 -0.03164086 51.2145167 -0.0244527 58.26832581 -0.01016235 C66.41801782 0.00615771 74.56748459 0.00088007 82.71717113 -0.01564157 C89.71860124 -0.02926621 96.71996362 -0.03117113 103.7214027 -0.02332556 C107.90111262 -0.0186536 112.08071677 -0.01801092 116.26041985 -0.02793503 C120.19130719 -0.03661644 124.12190493 -0.0305615 128.05276108 -0.01325226 C129.49347898 -0.00929339 130.93422134 -0.0104112 132.37492943 -0.01704025 C134.34532156 -0.02526893 136.3157671 -0.01310851 138.28613281 0 C139.38763389 0.00113108 140.48913496 0.00226215 141.62401485 0.00342751 C147.74361734 0.75290383 151.76160655 3.79627736 155.70655823 8.38095093 C159.41389271 14.0004306 159.15816702 19.34009631 159.14015198 25.84188843 C159.14539383 26.94642365 159.15063568 28.05095886 159.15603638 29.18896484 C159.16244669 31.5205298 159.16113246 33.85212714 159.15260315 36.1836853 C159.14410353 39.73701062 159.17285403 43.28872216 159.2046051 46.84188843 C159.20621761 49.11272128 159.20563864 51.38355697 159.20265198 53.65438843 C159.21388596 54.70983856 159.22511993 55.7652887 159.23669434 56.85272217 C159.17721954 63.1995733 158.40820138 68.10695152 154.70655823 73.38095093 C149.88368023 77.96268502 146.13396866 79.62726907 139.50886536 79.65510559 C138.23597656 79.66508072 136.96308777 79.67505585 135.65162659 79.68533325 C134.24317945 79.68622903 132.83473214 79.68689261 131.42628479 79.68734741 C129.94115279 79.69497005 128.45602473 79.70339773 126.97090149 79.71257019 C122.93766436 79.73451475 118.90450305 79.74331428 114.87121296 79.74839664 C112.34976364 79.75204095 109.82833415 79.75828147 107.3068924 79.76539803 C98.50553516 79.78989457 89.70423687 79.80294439 80.90284729 79.80648804 C72.70711864 79.81012115 64.51176499 79.8399997 56.3161509 79.88189262 C49.27395227 79.9166238 42.23187771 79.93203698 35.18959403 79.93273407 C30.98621182 79.93352608 26.78321141 79.94222867 22.57991791 79.97073174 C18.62348395 79.99696044 14.66774698 79.99909137 10.71126556 79.9830761 C9.26330543 79.98126525 7.81530478 79.9879195 6.36743164 80.00389481 C-8.37665876 80.15658997 -8.37665876 80.15658997 -14.29344177 74.38095093 C-15.96720222 72.09703394 -17.07349695 69.96723394 -18.29344177 67.38095093 C-18.62344177 66.72095093 -18.95344177 66.06095093 -19.29344177 65.38095093 C-19.39875441 63.77901794 -19.44216752 62.17281735 -19.45457458 60.56747437 C-19.46418213 59.56593323 -19.47378967 58.56439209 -19.48368835 57.53250122 C-19.48793823 56.44608337 -19.49218811 55.35966553 -19.49656677 54.24032593 C-19.50511688 52.5679184 -19.50511688 52.5679184 -19.51383972 50.86172485 C-19.52329996 48.49786328 -19.52982775 46.13398846 -19.53367615 43.77011108 C-19.54336466 40.1596865 -19.57437208 36.54983515 -19.60594177 32.93954468 C-19.61247341 30.64397514 -19.61772325 28.34840154 -19.62156677 26.05282593 C-19.63391357 24.974505 -19.64626038 23.89618408 -19.65898132 22.78518677 C-19.63783407 15.6389757 -18.7786567 11.19316782 -13.91844177 5.69345093 C-9.31139721 1.63486405 -6.19823392 0.00636684 0 0 Z M-4.29344177 17.38095093 C-4.60540657 19.3786439 -4.60540657 19.3786439 -4.56809998 21.69125366 C-4.57763199 22.58235336 -4.587164 23.47345306 -4.59698486 24.39155579 C-4.59607346 25.35614212 -4.59516205 26.32072845 -4.59422302 27.31454468 C-4.59850815 28.30342178 -4.60279327 29.29229889 -4.60720825 30.31114197 C-4.61295814 32.40512322 -4.61344699 34.49912446 -4.6091156 36.59310913 C-4.60595793 39.80203253 -4.62939895 43.0100324 -4.6547699 46.21884155 C-4.657043 48.25074143 -4.65774634 50.28264379 -4.65672302 52.31454468 C-4.66593277 53.27710678 -4.67514252 54.23966888 -4.68463135 55.23139954 C-4.67840256 56.1256514 -4.67217377 57.01990326 -4.66575623 57.94125366 C-4.66638565 58.72797958 -4.66701508 59.51470551 -4.66766357 60.32527161 C-4.17924426 63.00826194 -3.45771543 63.73508693 -1.29344177 65.38095093 C1.37062747 65.83413254 1.37062747 65.83413254 4.43800354 65.76190186 C5.63260193 65.77036133 6.82720032 65.7788208 8.05799866 65.78753662 C10.02645752 65.77842758 10.02645752 65.77842758 12.03468323 65.76913452 C13.42925935 65.77319915 14.82383226 65.77854043 16.21839905 65.7850647 C20.00763829 65.79875716 23.79663287 65.79343181 27.58587646 65.78392744 C31.54831103 65.77634079 35.51072442 65.78337368 39.47315979 65.78808594 C46.12782051 65.7935464 52.78238141 65.78634429 59.43702698 65.77206421 C67.13458379 65.75573709 74.83190224 65.76102539 82.52945328 65.77754343 C89.13419767 65.79115005 95.73887024 65.79308201 102.34362411 65.78522742 C106.29020343 65.78054634 110.23667065 65.7799379 114.1832428 65.78983688 C117.89331236 65.79849236 121.6030741 65.79251096 125.31311035 65.77515411 C127.32710851 65.76928411 129.34113265 65.77821691 131.3551178 65.78753662 C133.14701538 65.77484741 133.14701538 65.77484741 134.97511292 65.76190186 C136.01560791 65.76077078 137.05610291 65.7596397 138.12812805 65.75847435 C140.74097914 65.58819628 140.74097914 65.58819628 142.5413847 63.98562145 C144.07803364 61.86935705 144.08095514 60.54414619 144.07887268 57.94125366 C144.08510147 57.0470018 144.09133026 56.15274994 144.0977478 55.23139954 C144.08853806 54.26883743 144.07932831 53.30627533 144.06983948 52.31454468 C144.07033798 51.32471085 144.07083649 50.33487701 144.0713501 49.31504822 C144.06900951 47.22281893 144.0592819 45.13058683 144.04273987 43.03842163 C144.01912459 39.82747365 144.0221819 36.61735442 144.02882385 33.40634155 C144.02324799 31.37573762 144.01613869 29.3451372 144.00733948 27.31454468 C144.00870659 25.86766518 144.00870659 25.86766518 144.01010132 24.39155579 C144.00056931 23.50045609 143.99103729 22.60935638 143.98121643 21.69125366 C143.97660904 20.90532333 143.97200165 20.11939301 143.96725464 19.30964661 C143.87277997 17.14316057 143.87277997 17.14316057 141.70655823 15.38095093 C139.10280025 15.07584447 139.10280025 15.07584447 136.01271057 15.12698364 C134.80121338 15.12134399 133.58971619 15.11570435 132.34150696 15.1098938 C130.99183596 15.11378274 129.64216554 15.1178791 128.29249573 15.12216187 C126.87674275 15.119453 125.46099119 15.11589266 124.04524231 15.11154175 C120.19407463 15.10240299 116.34301379 15.10596808 112.49184418 15.11229992 C108.46754664 15.11735225 104.44325845 15.11267061 100.41896057 15.10952759 C93.65999199 15.1058857 86.90106706 15.11069287 80.1421051 15.12020874 C72.32019489 15.13109373 64.49838893 15.12756831 56.67648125 15.11655593 C49.9690251 15.10748939 43.26160039 15.10619467 36.55414009 15.11143327 C32.54444291 15.11455646 28.53479477 15.11495277 24.52510071 15.10836029 C20.75601555 15.10259663 16.98706523 15.10656562 13.21799469 15.1181488 C11.83203607 15.12080066 10.44606617 15.12002137 9.060112 15.11562347 C7.17354733 15.11018752 5.28695795 15.11820154 3.40040588 15.12698364 C1.81420944 15.12811472 1.81420944 15.12811472 0.19596863 15.12926865 C-2.46757999 15.13349335 -2.46757999 15.13349335 -4.29344177 17.38095093 Z " fill="#020301" transform="translate(186.29344177246094,42.619049072265625)"/>
<path d="M0 0 C1.12277344 0.37382812 2.24554688 0.74765625 3.40234375 1.1328125 C15.58659359 5.5081317 26.22419586 11.53418636 36 20 C36.75925781 20.61488281 37.51851563 21.22976563 38.30078125 21.86328125 C55.4133869 36.13856369 67.43779954 59.35700144 69.79052734 81.42675781 C71.75590646 105.57022622 68.01543812 126.69567653 55.8984375 147.6875 C54.00742017 150.85213742 54.00742017 150.85213742 52.7890625 153.75 C51.40981987 156.41591865 50.65481237 157.55962308 48 159 C41.88579978 159.49541939 36.0542458 158.87036387 30 158 C28.7315625 157.82082031 27.463125 157.64164063 26.15625 157.45703125 C23.42332571 157.02431824 20.71186688 156.54769076 18 156 C18 153 18 153 20.34375 150.57421875 C21.39425473 149.610256 22.44645347 148.64813732 23.5 147.6875 C37.51776624 134.2647399 44.54978111 115.49965389 45.3347168 96.2746582 C45.75959921 74.91981045 36.70222881 56.3172841 22.14453125 41.0546875 C6.37908301 26.06238491 -14.21547525 21.31431337 -35.25390625 21.69140625 C-50.8710792 22.30710046 -65.51207072 28.69499478 -77.42578125 38.71484375 C-79 40 -79 40 -80 40 C-80.54978317 31.3460057 -78.90869689 23.40933124 -77 15 C-76.88785156 14.0925 -76.77570313 13.185 -76.66015625 12.25 C-76.18041007 9.54514534 -75.74303074 8.14284964 -74 6 C-69.20954884 3.30090252 -64.24608976 1.59390125 -59 0 C-57.948125 -0.32871094 -56.89625 -0.65742188 -55.8125 -0.99609375 C-37.94476514 -6.18270012 -17.60884011 -6.0204526 0 0 Z " fill="#FCFCFC" transform="translate(285,259)"/>
<path d="M0 0 C17.7472326 11.36537822 28.25545913 28.05766703 33.6484375 48.05566406 C37.8228832 68.31634957 32.82425065 88.4972723 21.95703125 105.73925781 C20.29793134 107.98204106 18.5476356 110.012415 16.6484375 112.05566406 C15.84792969 112.94640625 15.04742187 113.83714844 14.22265625 114.75488281 C1.70836932 128.02980658 -15.8713841 137.67555504 -34.453125 138.22363281 C-57.43591748 138.45910706 -75.96238284 132.38091654 -93.3515625 117.05566406 C-108.81302974 100.95661055 -116.06444706 80.60019287 -115.62109375 58.37207031 C-114.72334919 38.70571528 -104.69457709 20.78118602 -90.6640625 7.43066406 C-80.12923733 -1.64499963 -69.58930782 -6.43535453 -56.3515625 -9.94433594 C-55.40567261 -10.21262207 -55.40567261 -10.21262207 -54.44067383 -10.48632812 C-35.82149191 -14.56831776 -15.91909319 -9.75486655 0 0 Z M-85.3515625 23.05566406 C-96.59754274 36.68715526 -101.70486986 52.48120679 -100.3515625 70.05566406 C-98.29327207 83.13937064 -93.18824393 94.24283759 -84.3515625 104.05566406 C-83.57039063 104.99345703 -83.57039063 104.99345703 -82.7734375 105.95019531 C-73.92242586 115.8517058 -59.50305439 122.31123999 -46.3515625 123.05566406 C-29.52466568 123.97430956 -13.94587659 119.96469922 -0.9765625 108.74316406 C12.12099363 96.01122116 19.51312159 81.14443029 20.0859375 62.68066406 C19.69089583 45.88280513 12.38407712 30.91391484 0.6484375 19.05566406 C-24.82963719 -2.66887093 -62.13631947 -1.63569268 -85.3515625 23.05566406 Z " fill="#030302" transform="translate(296.3515625,290.9443359375)"/>
<path d="M0 0 C39.6 0 79.2 0 120 0 C120 11.22 120 22.44 120 34 C80.4 34 40.8 34 0 34 C0 22.78 0 11.56 0 0 Z " fill="#8E89D1" transform="translate(196,164)"/>
<path d="M0 0 C7.89968355 4.62711232 13.77459116 11.05094877 16.8125 19.7578125 C18.84045853 28.85827638 18.39272325 37.58165757 13.4375 45.5625 C13.01339844 46.25988281 12.58929688 46.95726562 12.15234375 47.67578125 C7.3444611 54.78716199 0.71032768 59.32385044 -7.5625 61.5625 C-16.31777332 62.39083169 -23.9821977 62.25580326 -31.5625 57.5625 C-32.18511719 57.211875 -32.80773437 56.86125 -33.44921875 56.5 C-40.82379196 51.89289136 -44.96985881 44.36294657 -47.0859375 36.08984375 C-48.95899823 26.15648072 -46.61627154 18.32346153 -41.43359375 9.6796875 C-31.96986665 -2.9166322 -13.98830886 -6.44104528 0 0 Z " fill="#030303" transform="translate(97.5625,288.4375)"/>
<path d="M0 0 C0.74168427 0.00444122 1.48336853 0.00888245 2.24752808 0.01345825 C3.50860886 0.01368484 3.50860886 0.01368484 4.79516602 0.01391602 C6.15773026 0.02939987 6.15773026 0.02939987 7.54782104 0.04519653 C8.47722504 0.04802643 9.40662903 0.05085632 10.36419678 0.05377197 C13.33959704 0.06498834 16.3146989 0.09009543 19.29000854 0.11550903 C21.30432712 0.12553696 23.31865041 0.13466313 25.33297729 0.14285278 C30.27710311 0.16493243 35.22100519 0.1994721 40.16500854 0.24050903 C40.28763062 1.28891968 40.41025269 2.33733032 40.53659058 3.41751099 C41.42045514 10.8245038 42.33034267 18.15757656 44.04000854 25.42800903 C44.20855347 26.16921997 44.37709839 26.91043091 44.55075073 27.67410278 C45.90635694 33.48742331 47.56844606 39.16174945 49.43063354 44.83425903 C50.16500854 47.24050903 50.16500854 47.24050903 50.16500854 49.24050903 C80.19500854 49.24050903 110.22500854 49.24050903 141.16500854 49.24050903 C141.16500854 49.57050903 141.16500854 49.90050903 141.16500854 50.24050903 C122.70234588 50.31053885 104.23971011 50.36346759 85.77694225 50.39594555 C77.20467379 50.41142534 68.63248777 50.43253602 60.06027222 50.46682739 C52.59016548 50.4966958 45.12011845 50.51607594 37.64995366 50.52277452 C33.69323388 50.52669114 29.73668489 50.53591863 25.78001976 50.5576992 C22.05772824 50.57802407 18.3356783 50.58435103 14.61333656 50.57983208 C12.59211781 50.58105414 10.57092551 50.59721716 8.54977417 50.61376953 C7.3508403 50.60964554 6.15190643 50.60552155 4.91664124 50.60127258 C3.35005406 50.60542065 3.35005406 50.60542065 1.75181866 50.60965252 C-0.83499146 50.24050903 -0.83499146 50.24050903 -2.67107964 48.84644127 C-4.20553887 46.72923832 -4.20938804 45.40329015 -4.20730591 42.80081177 C-4.2135347 41.90655991 -4.21976349 41.01230804 -4.22618103 40.09095764 C-4.21697128 39.12839554 -4.20776154 38.16583344 -4.19827271 37.17410278 C-4.19902046 35.68935204 -4.19902046 35.68935204 -4.19978333 34.17460632 C-4.19744274 32.08237703 -4.18771513 29.99014494 -4.1711731 27.89797974 C-4.14755781 24.68703176 -4.15061513 21.47691252 -4.15725708 18.26589966 C-4.15168122 16.23529573 -4.14457192 14.20469531 -4.13577271 12.17410278 C-4.13668411 11.20951645 -4.13759552 10.24493011 -4.13853455 9.25111389 C-4.12900253 8.36001419 -4.11947052 7.46891449 -4.10964966 6.55081177 C-4.10504227 5.76488144 -4.10043488 4.97895111 -4.09568787 4.16920471 C-3.7287921 1.4548203 -2.74150008 0.35932349 0 0 Z " fill="#E8CB72" transform="translate(185.83499145507813,57.759490966796875)"/>
<path d="M0 0 C1.50715324 -0.01441132 1.50715324 -0.01441132 3.04475403 -0.02911377 C4.13430893 -0.03336365 5.22386383 -0.03761353 6.34643555 -0.04199219 C7.46374557 -0.04769226 8.5810556 -0.05339233 9.73222351 -0.05926514 C12.10028127 -0.0687246 14.46835225 -0.07525286 16.83642578 -0.07910156 C20.45783515 -0.08879939 24.07867528 -0.11981138 27.69995117 -0.15136719 C29.99877592 -0.15789785 32.29760474 -0.16314808 34.59643555 -0.16699219 C35.67991776 -0.17933899 36.76339996 -0.19168579 37.87971497 -0.20440674 C44.34877259 -0.18526476 48.03253384 0.35875013 52.9597168 4.75878906 C54.89055322 8.58931939 54.60331544 12.37335202 54.5456543 16.59863281 C54.55725586 17.44490234 54.56885742 18.29117187 54.58081055 19.16308594 C54.55838078 23.93688693 54.4028217 27.38556608 51.1706543 31.16113281 C46.31377545 35.26051106 40.76508434 34.62874909 34.73706055 34.62988281 C33.62636703 34.63749634 32.51567352 34.64510986 31.37132263 34.6529541 C29.02540329 34.66374623 26.67943594 34.66661183 24.33349609 34.66210938 C20.7491019 34.66113714 17.1668489 34.70277069 13.58276367 34.74707031 C11.30086709 34.75227754 9.01896307 34.7549655 6.73706055 34.75488281 C5.66815079 34.77127808 4.59924103 34.78767334 3.49794006 34.80456543 C-4.80109077 34.72768287 -4.80109077 34.72768287 -8.48974609 31.74902344 C-12.7261246 27.06305743 -12.11469431 22.93270247 -12.2043457 16.84863281 C-12.24172852 15.89794922 -12.27911133 14.94726562 -12.31762695 13.96777344 C-12.406425 6.90832833 -12.406425 6.90832833 -9.4309082 3.05566406 C-5.92820081 0.50489367 -4.26696449 0.0328655 0 0 Z " fill="#FDFEFE" transform="translate(400.829345703125,243.8388671875)"/>
<path d="M0 0 C38.94 0 77.88 0 118 0 C118 5.28 118 10.56 118 16 C79.06 16 40.12 16 0 16 C0 10.72 0 5.44 0 0 Z " fill="#B49CDC" transform="translate(197,181)"/>
<path d="M0 0 C0.86462357 -0.00960754 1.72924713 -0.01921509 2.62007141 -0.02911377 C4.02472908 -0.03548859 4.02472908 -0.03548859 5.45776367 -0.04199219 C6.41970139 -0.04769226 7.3816391 -0.05339233 8.37272644 -0.05926514 C10.4112335 -0.06872231 12.44975589 -0.07525196 14.48828125 -0.07910156 C17.60273047 -0.08879559 20.71651663 -0.11980756 23.83081055 -0.15136719 C25.81062433 -0.15789835 27.79044284 -0.16314838 29.77026367 -0.16699219 C30.70062943 -0.17933899 31.63099518 -0.19168579 32.58955383 -0.20440674 C37.46866718 -0.18765461 40.91621732 -0.11093724 44.81323242 3.16113281 C47.12077141 5.50371036 47.76119394 6.66433881 48.10620117 9.95800781 C48.07139648 10.93253906 48.0365918 11.90707031 48.00073242 12.91113281 C47.96012695 14.38839844 47.96012695 14.38839844 47.91870117 15.89550781 C47.88389648 16.64316406 47.8490918 17.39082031 47.81323242 18.16113281 C46.13704834 18.18300659 46.13704834 18.18300659 44.42700195 18.20532227 C40.18843199 18.26431661 35.95033889 18.34151842 31.7121582 18.42358398 C29.89518099 18.45636697 28.07811329 18.48453529 26.26098633 18.50756836 C13.83804092 18.66912852 2.00637031 19.74878114 -10.18676758 22.16113281 C-10.2486016 20.25973665 -10.31021713 18.35833288 -10.37023926 16.45687866 C-10.41918912 14.99765636 -10.47987043 13.53881581 -10.54711914 12.08032227 C-10.60703859 8.25852443 -10.41879485 6.52403498 -8.29614258 3.20410156 C-5.41003696 0.40885482 -3.89927639 0.03493389 0 0 Z " fill="#DD6B7B" transform="translate(64.186767578125,179.8388671875)"/>
<path d="M0 0 C4.87521849 2.44299028 7.91972677 6.3544319 9.89453125 11.38671875 C11.10446037 17.07888527 10.33535335 21.3509757 7.33203125 26.32421875 C4.32823491 30.2872694 1.81819382 32.15580311 -3.10546875 33.38671875 C-8.16272448 34.01385062 -11.87089256 34.00400684 -16.48046875 31.69921875 C-21.69295193 27.10726928 -24.78101819 22.9556749 -25.41796875 15.94921875 C-24.90744166 10.1292099 -22.8619945 6.85336628 -18.54296875 3.07421875 C-13.06832027 -1.41146097 -6.86419049 -1.99940242 0 0 Z " fill="#F3EB85" transform="translate(90.10546875,301.61328125)"/>
</svg>
