<?xml version="1.0" encoding="UTF-8"?>
<svg version="1.1" xmlns="http://www.w3.org/2000/svg" width="512" height="512">
<path d="M0 0 C44.13239944 40.84828112 68.10571363 97.36297406 70.52832031 157.12060547 C70.9056001 177.69492961 68.13158063 197.9586884 63.39941406 217.94091797 C63.21540039 218.71838379 63.03138672 219.49584961 62.84179688 220.296875 C54.69647517 253.41265149 36.92490829 283.63919503 14.39941406 308.94091797 C13.94711426 309.45493164 13.49481445 309.96894531 13.02880859 310.49853516 C-6.91043231 333.10625097 -31.29254643 350.33027142 -58.60058594 362.94091797 C-59.30699219 363.27188477 -60.01339844 363.60285156 -60.74121094 363.94384766 C-110.64409184 387.05932219 -170.84081629 389.29310806 -222.60058594 370.94091797 C-223.2422168 370.71823242 -223.88384766 370.49554688 -224.54492188 370.26611328 C-251.59533511 360.83239809 -276.44401231 346.51646835 -297.45605469 326.93310547 C-299.39276026 325.13398008 -301.38207329 323.44382601 -303.41308594 321.75341797 C-324.39167446 303.34966627 -339.98044267 279.10404742 -351.60058594 253.94091797 C-351.93155273 253.23451172 -352.26251953 252.52810547 -352.60351562 251.80029297 C-364.4032283 226.32646351 -370.86608366 198.01167903 -371.60058594 169.94091797 C-371.66052734 168.13300781 -371.66052734 168.13300781 -371.72167969 166.28857422 C-372.77062875 105.51123139 -349.02626807 49.13774921 -307.17871094 5.55517578 C-242.2101094 -60.90094943 -139.11533747 -76.34343522 0 0 Z " fill="#F3B11E" transform="translate(406.6005859375,94.05908203125)"/>
<path d="M0 0 C1.57387905 -0.00573832 1.57387905 -0.00573832 3.17955363 -0.01159257 C6.68303719 -0.02188224 10.18635562 -0.01793804 13.68984985 -0.01396179 C16.20679373 -0.01831049 18.72373629 -0.02349416 21.24067688 -0.02944946 C27.36042134 -0.04144444 33.48010529 -0.04399291 39.59985922 -0.0416492 C44.57622769 -0.03986339 49.55258286 -0.0416213 54.52894974 -0.04587364 C55.59289477 -0.04676643 55.59289477 -0.04676643 56.67833365 -0.04767724 C58.11945306 -0.04888905 59.56057248 -0.05010318 61.00169189 -0.05131962 C74.50526352 -0.0621867 88.00881015 -0.06003663 101.51238318 -0.05393478 C113.85298272 -0.0487665 126.1935033 -0.06002016 138.53408723 -0.07903299 C151.21991546 -0.09842719 163.90570637 -0.10666461 176.59154952 -0.10290974 C183.70786299 -0.10100008 190.82410927 -0.10346232 197.94041061 -0.11762428 C204.63321224 -0.13080918 211.3258305 -0.12825663 218.01864052 -0.11521339 C220.47198477 -0.11284849 222.92534015 -0.11557919 225.37867165 -0.12383652 C228.73366883 -0.13431256 232.08813681 -0.12619585 235.44311523 -0.11352539 C236.40850357 -0.12089968 237.37389191 -0.12827396 238.36853445 -0.13587171 C249.35327709 -0.0489005 258.00472631 3.07173475 266.34854126 10.26069641 C273.03965284 17.18154572 276.51092141 25.3561341 276.91104126 34.94819641 C276.26516555 52.22075828 266.45702827 68.86312573 259.34854126 84.26069641 C258.98405884 85.05056946 258.61957642 85.8404425 258.24404907 86.6542511 C240.98483575 123.63827964 209.48791321 151.02123046 171.53604126 165.07319641 C168.48344224 166.16607622 165.42059653 167.22390539 162.34854126 168.26069641 C161.3881897 168.58940735 160.42783813 168.91811829 159.43838501 169.25679016 C122.94391159 180.41912514 82.06656358 174.99829925 48.34854126 158.26069641 C47.18967407 157.69479797 46.03080688 157.12889954 44.83682251 156.54585266 C33.26640623 150.61409522 22.94795691 143.07277349 13.45401001 134.21382141 C11.73596665 132.62008917 9.9998879 131.14610716 8.16104126 129.69819641 C-14.06559046 110.43511559 -38.65172072 68.29007327 -40.88973999 39.15913391 C-41.12546743 27.96828366 -38.94611565 20.05696571 -31.76864624 11.37007141 C-22.54694748 2.18240106 -12.52526683 -0.04880863 0 0 Z " fill="#25201F" transform="translate(137.65145874023438,250.7393035888672)"/>
<path d="M0 0 C44.13239944 40.84828112 68.10571363 97.36297406 70.52832031 157.12060547 C70.9056001 177.69492961 68.13158063 197.9586884 63.39941406 217.94091797 C63.21540039 218.71838379 63.03138672 219.49584961 62.84179688 220.296875 C54.69647517 253.41265149 36.92490829 283.63919503 14.39941406 308.94091797 C13.94711426 309.45493164 13.49481445 309.96894531 13.02880859 310.49853516 C-6.91043231 333.10625097 -31.29254643 350.33027142 -58.60058594 362.94091797 C-59.30699219 363.27188477 -60.01339844 363.60285156 -60.74121094 363.94384766 C-110.64409184 387.05932219 -170.84081629 389.29310806 -222.60058594 370.94091797 C-223.2422168 370.71823242 -223.88384766 370.49554688 -224.54492188 370.26611328 C-251.59533511 360.83239809 -276.44401231 346.51646835 -297.45605469 326.93310547 C-299.39276026 325.13398008 -301.38207329 323.44382601 -303.41308594 321.75341797 C-324.39167446 303.34966627 -339.98044267 279.10404742 -351.60058594 253.94091797 C-351.93155273 253.23451172 -352.26251953 252.52810547 -352.60351562 251.80029297 C-364.4032283 226.32646351 -370.86608366 198.01167903 -371.60058594 169.94091797 C-371.66052734 168.13300781 -371.66052734 168.13300781 -371.72167969 166.28857422 C-372.77062875 105.51123139 -349.02626807 49.13774921 -307.17871094 5.55517578 C-242.2101094 -60.90094943 -139.11533747 -76.34343522 0 0 Z M-196.60058594 -22.55908203 C-198.02890747 -22.17768066 -198.02890747 -22.17768066 -199.48608398 -21.78857422 C-223.60642701 -15.04672938 -245.72984254 -4.2398363 -265.60058594 10.94091797 C-266.48359375 11.59962891 -267.36660156 12.25833984 -268.27636719 12.93701172 C-297.47843358 35.66942456 -317.93088917 66.45961749 -330.60058594 100.94091797 C-330.96925781 101.93736328 -331.33792969 102.93380859 -331.71777344 103.96044922 C-335.32377463 114.62470855 -336.88573921 125.84508699 -338.60058594 136.94091797 C-338.77855713 138.04306641 -338.95652832 139.14521484 -339.13989258 140.28076172 C-339.6232922 144.12131663 -339.77890349 147.8972927 -339.80371094 151.76123047 C-339.81072525 152.49378052 -339.81773956 153.22633057 -339.82496643 153.9810791 C-339.84242346 156.34275495 -339.84882206 158.70417989 -339.85058594 161.06591797 C-339.85126068 161.87293152 -339.85193542 162.67994507 -339.85263062 163.51141357 C-339.8270868 182.74185046 -337.5728237 200.61273948 -331.60058594 218.94091797 C-331.35324707 219.70082031 -331.1059082 220.46072266 -330.85107422 221.24365234 C-321.7447927 248.61394481 -307.28586175 271.94329043 -287.60058594 292.94091797 C-287.14087402 293.43462891 -286.68116211 293.92833984 -286.20751953 294.43701172 C-273.48747848 307.98928395 -258.90520682 319.03894523 -242.60058594 327.94091797 C-241.98425293 328.27929688 -241.36791992 328.61767578 -240.73291016 328.96630859 C-212.8014656 344.09252708 -182.67714893 351.41389509 -150.97558594 351.25341797 C-150.18655884 351.25093048 -149.39753174 351.24844299 -148.58459473 351.24588013 C-108.05360139 351.04882461 -67.71092594 338.16443505 -35.60058594 312.94091797 C-34.72402344 312.28478516 -33.84746094 311.62865234 -32.94433594 310.95263672 C4.05942282 282.25243226 27.52679107 240.50929634 36.39941406 194.94091797 C36.58922852 193.98580322 36.77904297 193.03068848 36.97460938 192.04663086 C38.71997062 182.216875 38.79633912 172.45519019 38.77441406 162.50341797 C38.77409683 161.17523544 38.77409683 161.17523544 38.77377319 159.82022095 C38.74113223 146.12199988 37.78794162 133.25659702 34.39941406 119.94091797 C34.04214033 118.35437487 33.68798106 116.76712727 33.33691406 115.17919922 C23.47104686 72.47828709 -4.0988403 33.36480909 -39.60058594 7.94091797 C-40.22739258 7.49151855 -40.85419922 7.04211914 -41.5 6.57910156 C-64.38013361 -9.55373902 -90.22460931 -19.82508894 -117.60058594 -25.05908203 C-118.56077637 -25.24889648 -119.5209668 -25.43871094 -120.51025391 -25.63427734 C-129.31843927 -27.19937387 -137.96679851 -27.36580128 -146.8828125 -27.31982422 C-149.33326302 -27.30915744 -151.7829708 -27.31975177 -154.23339844 -27.33251953 C-168.57745533 -27.34692626 -182.6953131 -26.30617613 -196.60058594 -22.55908203 Z " fill="#26211F" transform="translate(406.6005859375,94.05908203125)"/>
<path d="M0 0 C0.87857334 -0.00322445 1.75714667 -0.00644889 2.66234344 -0.00977105 C4.12670628 -0.00744815 4.12670628 -0.00744815 5.6206522 -0.00507832 C7.16339993 -0.00847665 7.16339993 -0.00847665 8.73731428 -0.01194364 C12.21207435 -0.01831546 15.68679572 -0.01745225 19.16156101 -0.01662922 C21.64119105 -0.01961872 24.12082062 -0.02302076 26.60044956 -0.02680683 C32.65361815 -0.03474975 38.7067713 -0.0378624 44.75994366 -0.03841921 C49.67790629 -0.03889361 54.59586571 -0.04094453 59.51382732 -0.04411983 C73.44284664 -0.05293078 87.37185824 -0.05753852 101.30088037 -0.05678936 C102.0525124 -0.0567494 102.80414444 -0.05670945 103.5785532 -0.05666828 C104.7073704 -0.05660696 104.7073704 -0.05660696 105.85899199 -0.0565444 C118.05992596 -0.0561378 130.26082909 -0.06570975 142.46175414 -0.07980665 C154.97555498 -0.0941515 167.48934076 -0.10107788 180.00315005 -0.10021287 C187.0343446 -0.09988025 194.06550682 -0.10265586 201.09669399 -0.11339092 C207.70643769 -0.12341748 214.31612454 -0.12317998 220.92587566 -0.11587429 C223.35838641 -0.11482324 225.79090134 -0.1172219 228.22340488 -0.12323475 C231.53111442 -0.13088443 234.83858309 -0.12635683 238.14628696 -0.11860371 C239.12029813 -0.12374727 240.0943093 -0.12889083 241.09783596 -0.13419026 C241.97901704 -0.12959147 242.86019812 -0.12499267 243.76808167 -0.12025452 C244.53229634 -0.12047188 245.29651101 -0.12068925 246.0838837 -0.12091321 C247.9469614 0.12863445 247.9469614 0.12863445 249.9469614 2.12863445 C249.59402535 6.7163904 248.10980073 10.52135139 246.28680515 14.71457195 C246.02149998 15.32885052 245.7561948 15.94312908 245.48285007 16.57602215 C244.62468172 18.55547888 243.75576339 20.52992667 242.8844614 22.50363445 C242.58806767 23.17847881 242.29167393 23.85332317 241.98629856 24.54861736 C239.99287685 29.08422648 237.97485141 33.60833777 235.9469614 38.12863445 C235.54993015 39.02195477 235.1528989 39.91527508 234.7438364 40.8356657 C220.9964075 71.45013238 195.70558597 92.93094485 164.8219614 105.00363445 C150.67342905 110.25880361 137.60266257 112.66766025 122.5094614 112.50363445 C121.83275394 112.49898174 121.15604649 112.49432903 120.45883274 112.48953533 C110.32453125 112.40800579 100.74694932 111.93470475 90.9469614 109.12863445 C89.90040379 108.83859539 89.90040379 108.83859539 88.83270359 108.54269695 C57.12077631 99.57310774 30.44977679 78.83442776 13.91180515 50.34543133 C11.33703222 45.72230665 9.12910344 40.94669996 6.9469614 36.12863445 C6.41151707 34.95671551 5.87607273 33.78479656 5.32440281 32.57736492 C3.79694171 29.22415243 2.29074744 25.86193488 0.79675388 22.49368572 C0.1914158 21.13174591 -0.41772433 19.77148927 -1.03076077 18.41299725 C-1.89698101 16.48670446 -2.74476538 14.55327671 -3.58819485 12.6169157 C-4.0871426 11.48809978 -4.58609035 10.35928387 -5.10015774 9.19626141 C-6.1109537 5.94218728 -6.11571667 4.3275308 -5.0530386 1.12863445 C-3.51999214 -0.404412 -2.13780985 0.00197097 0 0 Z " fill="#EC1C23" transform="translate(134.05303859710693,281.8713655471802)"/>
<path d="M0 0 C8.26803696 6.35498879 15.85113199 17.38572539 17.46484375 27.89453125 C18.27777601 42.93377809 16.475441 54.3271193 7.46484375 66.89453125 C-0.74730863 76.01608306 -11.4506822 82.52637235 -23.91796875 83.265625 C-37.74616171 83.62521312 -48.54841485 81.36603519 -59.31640625 72.06640625 C-68.46289909 63.11314918 -74.65527416 52.45587898 -74.91552734 39.4375 C-74.89618097 31.1783593 -74.36767561 24.39189724 -70.53515625 16.89453125 C-70.12265625 16.04632813 -69.71015625 15.198125 -69.28515625 14.32421875 C-62.79518924 2.26615504 -52.41075249 -4.42762189 -39.65234375 -8.7421875 C-25.18582282 -11.22445032 -12.09199963 -8.24060233 0 0 Z " fill="#241F1F" transform="translate(366.53515625,137.10546875)"/>
<path d="M0 0 C0.66043808 -0.0065712 1.32087616 -0.0131424 2.00132751 -0.01991272 C4.19212966 -0.03965783 6.38286303 -0.05131431 8.57373047 -0.0612793 C9.32315792 -0.06535482 10.07258537 -0.06943035 10.84472275 -0.07362938 C14.81558711 -0.09450077 18.78641685 -0.10879472 22.75732422 -0.11816406 C26.84614442 -0.12919769 30.93441576 -0.16355848 35.02304268 -0.20333576 C38.17677776 -0.22957639 41.33038396 -0.23786272 44.4842186 -0.24144554 C45.99041299 -0.24629666 47.49660219 -0.25786843 49.00268936 -0.27648354 C63.83263347 -0.44830482 63.83263347 -0.44830482 70.56591797 4.17700195 C73.46106791 7.59985448 74.78845832 10.74254603 75.00341797 15.23950195 C74.38476673 20.80736309 72.80078383 24.29246891 68.62841797 27.98950195 C64.04677174 31.2621064 60.64810791 31.3066975 55.07250977 31.35400391 C53.09476814 31.37325676 53.09476814 31.37325676 51.07707214 31.39289856 C49.63976418 31.40106657 48.20245194 31.40851018 46.76513672 31.4152832 C45.67497222 31.42139649 45.67497222 31.42139649 44.56278419 31.42763329 C40.71625685 31.44845923 36.86976481 31.4627762 33.02319336 31.47216797 C29.06212014 31.48322845 25.10160927 31.51763345 21.14073467 31.55733967 C18.08397923 31.58355183 15.02735697 31.5918638 11.97049904 31.59544945 C10.51092542 31.60030314 9.05135726 31.61188238 7.59189415 31.63048744 C-6.57637992 31.79988583 -6.57637992 31.79988583 -12.43408203 27.17700195 C-16.38013434 23.02326268 -17.23209771 20.35843267 -17.74658203 14.80200195 C-17.27199999 9.29685024 -14.87789726 6.44893441 -10.80908203 2.86450195 C-6.94042849 0.1157218 -4.74770112 0.03903867 0 0 Z " fill="#25201F" transform="translate(145.43408203125,168.822998046875)"/>
<path d="M0 0 C3.51520834 2.3707219 5.79390381 5.02530762 7.6875 8.8125 C8.27856487 14.49581608 7.95993416 18.96027003 4.6875 23.8125 C-0.35587889 28.36384193 -3.70083778 29.32724998 -10.40625 29.30078125 C-15.26274299 28.48483821 -18.29601357 25.57907531 -21.3125 21.8125 C-22.86658818 17.15023547 -23.03755056 12.67101637 -22.3125 7.8125 C-17.52326785 -1.00155917 -9.18324987 -3.29210845 0 0 Z " fill="#5F3813" transform="translate(345.3125,160.1875)"/>
<path d="M0 0 C0.66 0.33 1.32 0.66 2 1 C-5.59 8.59 -13.18 16.18 -21 24 C-21.66 23.67 -22.32 23.34 -23 23 C-15.90092645 14.6801863 -8.08772182 7.33992393 0 0 Z " fill="#513F1C" transform="translate(114,86)"/>
</svg>
